<svg width="128" height="128" xmlns="http://www.w3.org/2000/svg">
 <desc>Made with illustrio</desc>

 <style>.main-fill {fill: #bd4100;}
          .main-stroke {stroke: #bd4100;}
          .secondary-fill {fill: #ffdbab;}
          .secondary-stroke {stroke: #ffdbab;}

          .main-fill--darken {fill: #702700;}
          .main-stroke--darken {stroke: #702700;}
          .secondary-fill--darken {fill: #ffba5e;}
          .secondary-stroke--darken {stroke: #ffba5e;}

          .main-fill--darkener {fill: #3d1500;}
          .main-stroke--darkener {stroke: #3d1500;}
          .secondary-fill--darkener {fill: #ffa42b;}
          .secondary-stroke--darkener {stroke: #ffa42b;}</style>
 <g>
  <title>background</title>
  <rect fill="none" id="canvas_background" height="130" width="130" y="-1" x="-1"/>
 </g>
 <g>
  <title>Layer 1</title>
  <g stroke="null" transform="translate(0.12222829461097717,0.29583656787872314) scale(1.0065711736679077,1.0079110860824585) translate(-0.12222829461097717,-0.29583656787872314) " id="svg_1" class="base">
   <g id="svg_2" class="main-fill" fill-rule="evenodd" fill="none">
    <path id="svg_3" class="main-fill" d="m108.269412,31.63255l-13.12443,-29.875416c-0.423369,-1.298931 -2.116844,-1.731908 -3.38695,-1.298931l-25.402122,7.793587l-22.438541,-6.061679c-1.270106,-0.432977 -2.116844,0 -2.963581,1.298931l-16.088011,23.813737l-23.285279,10.824426c-0.846737,0.432977 -1.270106,0.865954 -1.270106,1.731908c-0.423369,0.865954 0,1.298931 0,2.164885l12.701061,25.978622l-0.846737,26.411599c0,0.865954 0.423369,1.731908 0.846737,2.164885c0.423369,0.432977 1.270106,0.865954 2.116844,0.865954l15.241273,-1.731908l21.591804,29.875416c0.423369,0.865954 1.270106,1.298931 2.116844,1.298931l0,0c0.846737,0 1.693475,-0.432977 2.116844,-1.298931l12.701061,-17.319082l13.547799,11.257403c0.846737,0 1.693475,0 2.540212,0c0.846737,-0.432977 1.693475,-0.865954 1.693475,-1.731908l3.38695,-14.721219l22.438541,-3.030839c0.846737,0 1.270106,-0.432977 1.693475,-1.298931c0.423369,-0.432977 0.423369,-1.298931 0.423369,-2.164885l-3.810318,-22.514806l15.664642,-22.081829c0.846737,-1.298931 0.846737,-2.597862 -0.423369,-3.463816l-17.781486,-16.886105l0,0zm-44.030345,61.049762c-3.38695,0 -6.350531,-0.865954 -9.314112,-2.597862l9.314112,-7.36061l9.314112,6.927633c-2.963581,2.164885 -5.927162,3.030839 -9.314112,3.030839l0,0zm21.168435,-19.05099c-1.270106,0 -2.116844,1.298931 -2.116844,2.164885c-0.846737,4.32977 -2.540212,7.793587 -5.080424,10.824426c0,0 0,-0.432977 -0.423369,-0.432977l-10.584218,-8.226564l0,-9.525495l3.38695,0c0.846737,0 1.693475,-0.432977 2.540212,-1.298931l8.467374,-15.154196l7.620637,0c1.693475,0 2.540212,-1.298931 2.540212,-2.597862c0,-1.298931 -1.270106,-2.597862 -2.540212,-2.597862l-8.890743,0c-0.846737,0 -1.693475,0.432977 -2.540212,1.298931l-8.467374,15.154196l-9.73748,0l-7.197268,-15.154196c-0.423369,-0.865954 -1.270106,-1.731908 -2.540212,-1.731908l-9.314112,0c-1.693475,0 -2.540212,1.298931 -2.540212,2.597862c0,1.298931 1.270106,2.597862 2.540212,2.597862l7.620637,0l7.197268,15.154196c0.423369,0.865954 1.270106,1.731908 2.540212,1.731908l4.233687,0l0,9.525495l-11.007586,8.659541c0,0 0,0 0,0.432977c-2.963581,-3.030839 -4.657056,-6.494656 -5.503793,-10.824426c0,-1.298931 -1.270106,-2.164885 -2.116844,-2.164885c-9.314112,-1.731908 -16.51138,-9.525495 -16.51138,-19.483967c0,-10.824426 8.467374,-19.916944 19.47496,-19.916944c6.350531,0 12.277692,3.463816 16.088011,8.659541c0.423369,0.865954 1.270106,1.298931 2.116844,1.298931c0.846737,0 1.693475,-0.432977 2.116844,-1.298931c3.810318,-5.628702 9.73748,-8.659541 16.088011,-8.659541c10.584218,0 19.47496,8.659541 19.47496,19.916944c-0.846737,9.525495 -7.620637,17.752059 -16.934748,19.05099l0,0z" fill="none"/>
   </g>
  </g>
 </g>
</svg>